<svg width="101" height="83" viewBox="0 0 101 83" fill="none" xmlns="http://www.w3.org/2000/svg">
<rect x="0.5" y="0.5" width="100" height="82" stroke="#B6B6B6"/>
<path d="M48 15.3333C33.304 15.3333 21.3333 27.304 21.3333 42C21.3333 56.696 33.304 68.6667 48 68.6667C62.696 68.6667 74.6667 56.696 74.6667 42C74.6667 27.304 62.696 15.3333 48 15.3333ZM48 20.6667C59.8137 20.6667 69.3333 30.1864 69.3333 42C69.3333 52.7053 61.5075 61.5014 51.25 63.0625V48.3594H57.4583L58.4323 42.0521H51.25V38.6042C51.25 35.9828 52.104 33.6563 54.5573 33.6563H58.4948V28.1511C57.8015 28.0577 56.3383 27.8542 53.5729 27.8542C47.7969 27.8542 44.4115 30.9048 44.4115 37.8542V42.0521H38.474V48.3594H44.4115V63.0104C34.3208 61.3089 26.6667 52.5873 26.6667 42C26.6667 30.1864 36.1864 20.6667 48 20.6667Z" fill="#8A8A8A"/>
</svg>
