<svg width="101" height="83" viewBox="0 0 101 83" fill="none" xmlns="http://www.w3.org/2000/svg">
<rect x="0.5" y="0.5" width="100" height="82" stroke="#B6B6B6"/>
<path d="M40.3333 18C32.9813 18 27 23.9813 27 31.3333V52.6667C27 60.0187 32.9813 66 40.3333 66H61.6667C69.0187 66 75 60.0187 75 52.6667V31.3333C75 23.9813 69.0187 18 61.6667 18H40.3333ZM40.3333 23.3333H61.6667C66.0773 23.3333 69.6667 26.9227 69.6667 31.3333V52.6667C69.6667 57.0773 66.0773 60.6667 61.6667 60.6667H40.3333C35.9227 60.6667 32.3333 57.0773 32.3333 52.6667V31.3333C32.3333 26.9227 35.9227 23.3333 40.3333 23.3333ZM64.3333 26C63.6261 26 62.9478 26.281 62.4477 26.781C61.9476 27.2811 61.6667 27.9594 61.6667 28.6667C61.6667 29.3739 61.9476 30.0522 62.4477 30.5523C62.9478 31.0524 63.6261 31.3333 64.3333 31.3333C65.0406 31.3333 65.7189 31.0524 66.219 30.5523C66.7191 30.0522 67 29.3739 67 28.6667C67 27.9594 66.7191 27.2811 66.219 26.781C65.7189 26.281 65.0406 26 64.3333 26ZM51 28.6667C43.648 28.6667 37.6667 34.648 37.6667 42C37.6667 49.352 43.648 55.3333 51 55.3333C58.352 55.3333 64.3333 49.352 64.3333 42C64.3333 34.648 58.352 28.6667 51 28.6667ZM51 34C55.4107 34 59 37.5893 59 42C59 46.4107 55.4107 50 51 50C46.5893 50 43 46.4107 43 42C43 37.5893 46.5893 34 51 34Z" fill="#8A8A8A"/>
</svg>
