<svg width="101" height="83" viewBox="0 0 101 83" fill="none" xmlns="http://www.w3.org/2000/svg">
<rect x="0.5" y="0.5" width="100" height="82" stroke="#B6B6B6"/>
<path d="M51.0312 15.3333C36.3486 15.3333 24.396 27.2757 24.3906 41.9583C24.388 46.6517 25.6172 51.2335 27.9479 55.2708L24.3333 68.6667L38.2865 65.3698C42.1771 67.4925 46.557 68.6067 51.0156 68.6094H51.026C65.706 68.6094 77.6535 56.6644 77.6615 41.9844C77.6668 34.8671 74.8991 28.1753 69.8698 23.1406C64.8405 18.1086 58.1566 15.336 51.0312 15.3333ZM51.026 20.6667C56.722 20.6693 62.075 22.8901 66.099 26.9115C70.123 30.9381 72.3335 36.2885 72.3281 41.9792C72.3228 53.7232 62.7702 63.2761 51.0208 63.2761C47.4662 63.2734 43.9451 62.3808 40.8437 60.6875L39.0469 59.7083L37.0625 60.1771L31.8125 61.4167L33.0937 56.6563L33.6719 54.5208L32.5677 52.6042C30.7064 49.3828 29.7213 45.6997 29.724 41.9583C29.7293 30.2197 39.2847 20.6667 51.026 20.6667ZM41.6042 29.6667C41.1588 29.6667 40.4388 29.8333 39.8281 30.5C39.2175 31.164 37.4948 32.7722 37.4948 36.0469C37.4948 39.3216 39.8802 42.487 40.2135 42.9323C40.5442 43.375 44.818 50.3073 51.5833 52.974C57.2047 55.19 58.3464 54.7526 59.5677 54.6406C60.789 54.5313 63.5078 53.0338 64.0625 51.4792C64.6172 49.9245 64.6185 48.5872 64.4531 48.3125C64.2878 48.0352 63.8437 47.8698 63.1771 47.5365C62.5131 47.2031 59.2409 45.5963 58.6302 45.375C58.0195 45.1537 57.5729 45.0417 57.1302 45.7083C56.6875 46.375 55.4154 47.8698 55.026 48.3125C54.6367 48.7578 54.25 48.8177 53.5833 48.4844C52.9167 48.1484 50.7732 47.4438 48.2292 45.1771C46.2505 43.4144 44.9154 41.2396 44.526 40.5729C44.1394 39.9089 44.4896 39.5442 44.8229 39.2136C45.1216 38.9149 45.4844 38.4362 45.8177 38.0469C46.1484 37.6576 46.263 37.3802 46.4844 36.9375C46.7057 36.4948 46.5924 36.1042 46.4271 35.7708C46.2617 35.4375 44.967 32.1507 44.375 30.8333C43.8763 29.7267 43.3497 29.701 42.875 29.6823C42.4883 29.6663 42.0468 29.6667 41.6042 29.6667Z" fill="#8A8A8A"/>
</svg>
